<svg xmlns="http://www.w3.org/2000/svg"  viewBox="0 0 100 100" width="50px" height="50px"><path d="M 54.177734 9.0703125 C 48.508801 9.0564245 43.989442 11.088114 40.658203 14.089844 C 37.326964 17.091573 35.134703 20.990766 33.646484 24.808594 C 31.219885 31.033714 30.772512 36.170418 30.638672 38.232422 C 30.438306 38.23328 30.255599 38.213294 30.054688 38.214844 A 2.0002 2.0002 0 0 0 30.041016 38.214844 C 27.878696 38.246664 25.81583 39.140811 24.314453 40.699219 C 22.813268 42.256745 21.995231 44.350273 22.042969 46.511719 C 22.105339 57.475846 20.786957 68.825947 21.335938 79.853516 A 2.0002 2.0002 0 0 0 21.337891 79.896484 C 21.654323 84.304576 25.250201 87.810237 29.666016 88.011719 C 45.276752 88.729869 59.927608 88.85417 73.214844 88.150391 A 2.0002 2.0002 0 0 0 73.228516 88.150391 C 77.754182 87.882096 81.267271 83.990567 81.072266 79.460938 A 2.0002 2.0002 0 0 0 81.070312 79.423828 C 80.670998 72.987733 80.92793 73.391345 81.259766 70.671875 C 81.591546 67.95286 81.927766 62.744704 81.628906 46.097656 C 81.598696 44.078977 80.738864 42.159639 79.251953 40.794922 C 77.829346 39.489224 75.942717 38.849178 74.021484 38.916016 C 74.112685 38.00904 74.70018 31.704744 72.875 24.714844 C 71.895029 20.961842 70.204452 17.093168 67.203125 14.09375 C 64.201798 11.094332 59.859838 9.0841574 54.177734 9.0703125 z M 54.167969 13.070312 C 58.951365 13.081972 62.06942 14.617762 64.375 16.921875 C 66.68058 19.225988 68.142706 22.418986 69.005859 25.724609 C 70.706569 32.237827 70.045435 38.791809 70.025391 38.988281 C 68.313578 39.056972 66.624643 39.093938 64.947266 39.113281 C 65.076971 37.591487 65.314367 33.450659 64.486328 29.146484 C 64.256881 27.953809 63.939476 26.755386 63.511719 25.605469 L 66.488281 24.787109 A 1.0001 1.0001 0 0 0 66.224609 22.818359 A 1.0001 1.0001 0 0 0 65.957031 22.857422 L 62.6875 23.757812 C 62.432208 23.274076 62.153491 22.804052 61.839844 22.359375 L 63.748047 19.605469 A 1.0001 1.0001 0 0 0 62.923828 18.023438 A 1.0001 1.0001 0 0 0 62.103516 18.466797 L 60.490234 20.796875 C 59.939886 20.279337 59.318375 19.829256 58.634766 19.453125 L 60.390625 16.941406 A 1.0001 1.0001 0 0 0 59.574219 15.355469 A 1.0001 1.0001 0 0 0 58.751953 15.794922 L 56.742188 18.673828 C 56.129117 18.497953 55.481892 18.371301 54.791016 18.314453 L 55.414062 15.355469 A 1.0001 1.0001 0 0 0 54.431641 14.134766 A 1.0001 1.0001 0 0 0 53.457031 14.943359 L 52.742188 18.341797 C 49.982443 18.620501 47.745662 19.919117 46.052734 21.697266 C 44.213964 23.628598 42.959057 26.091819 42.074219 28.507812 C 40.304543 33.339802 40.009766 38.074219 40.009766 38.074219 A 1.0001 1.0001 0 0 0 40.072266 38.496094 C 38.271422 38.439173 36.465308 38.389746 34.642578 38.359375 C 34.789465 36.352232 35.236157 31.748638 37.375 26.261719 C 38.712156 22.831421 40.644958 19.485349 43.335938 17.060547 C 46.026916 14.635745 49.428402 13.058701 54.167969 13.070312 z M 53.529297 20.279297 C 56.468798 20.179907 58.354147 21.23163 59.765625 22.929688 C 61.177103 24.627744 62.045677 27.041974 62.523438 29.525391 C 63.346995 33.806272 63.041709 37.988715 62.9375 39.119141 C 55.802821 39.131147 48.902118 38.801312 41.919922 38.558594 A 1.0001 1.0001 0 0 0 42.005859 38.201172 C 42.005859 38.201172 42.304301 33.697325 43.953125 29.195312 C 44.777537 26.944308 45.938083 24.716715 47.5 23.076172 C 49.061917 21.435629 50.975762 20.36562 53.529297 20.279297 z M 30.085938 42.214844 L 30.089844 42.214844 C 31.455994 42.2043 32.805689 42.226008 34.15625 42.246094 L 36.136719 44.822266 A 1.0001 1.0001 0 1 0 37.722656 43.603516 L 36.716797 42.292969 C 37.743349 42.319914 38.768505 42.351037 39.791016 42.388672 L 42.380859 47.548828 A 1.0001 1.0001 0 1 0 44.167969 46.652344 L 42.074219 42.476562 C 52.343083 42.911288 62.565066 43.654593 74.042969 42.871094 A 2.0002 2.0002 0 0 0 74.046875 42.869141 C 74.966356 42.803911 75.868716 43.119759 76.546875 43.742188 C 77.225965 44.36547 77.617071 45.23493 77.630859 46.15625 A 2.0002 2.0002 0 0 0 77.630859 46.162109 C 77.678596 48.819835 77.685468 50.733822 77.703125 52.833984 L 75.910156 52.130859 A 1.0001 1.0001 0 0 0 75.519531 52.056641 A 1.0001 1.0001 0 0 0 75.181641 53.992188 L 77.726562 54.990234 C 77.735713 56.927484 77.728328 58.478002 77.714844 59.955078 L 74.921875 60.111328 A 1.0001 1.0001 0 1 0 75.033203 62.107422 L 77.697266 61.958984 C 77.669086 63.626701 77.628901 64.964609 77.578125 66.064453 L 71.982422 70.289062 A 1.0001 1.0001 0 1 0 73.185547 71.886719 L 77.423828 68.6875 C 77.378683 69.21306 77.334522 69.814949 77.289062 70.1875 C 77.237869 70.607045 77.189383 70.93599 77.140625 71.28125 L 71.357422 74.863281 A 1.0002793 1.0002793 0 1 0 72.410156 76.564453 L 76.916016 73.773438 C 76.869067 74.995642 76.89204 76.652722 77.076172 79.632812 C 77.178988 82.021057 75.38807 84.008427 73.003906 84.15625 C 73.002706 84.156316 73.0012 84.156184 73 84.15625 C 70.35604 84.296258 67.639022 84.3952 64.882812 84.470703 L 65.490234 83.210938 A 1.0001 1.0001 0 0 0 64.529297 81.765625 A 1.0001 1.0001 0 0 0 63.6875 82.341797 L 62.632812 84.53125 C 61.48541 84.555382 60.319557 84.570193 59.154297 84.583984 L 60.195312 81.533203 A 1.0001 1.0001 0 0 0 59.267578 80.197266 A 1.0001 1.0001 0 0 0 58.302734 80.886719 L 57.033203 84.605469 C 56.35969 84.609852 55.675237 84.608268 54.996094 84.609375 L 55.486328 82.287109 A 1.0001 1.0001 0 0 0 54.503906 81.066406 A 1.0001 1.0001 0 0 0 53.529297 81.873047 L 52.951172 84.613281 C 50.380683 84.605271 47.766457 84.571436 45.121094 84.519531 L 45.560547 81.914062 A 1.0001 1.0001 0 0 0 44.529297 80.734375 A 1.0001 1.0001 0 0 0 43.587891 81.580078 L 43.099609 84.474609 C 42.174635 84.452855 41.249854 84.431061 40.316406 84.404297 L 41.126953 82.363281 A 1.0001 1.0001 0 0 0 40.164062 80.982422 A 1.0001 1.0001 0 0 0 39.267578 81.625 L 38.191406 84.337891 C 36.8791 84.295333 35.562412 84.24919 34.234375 84.197266 L 35.494141 81.603516 A 1.0001 1.0001 0 0 0 34.636719 80.154297 A 1.0001 1.0001 0 0 0 33.695312 80.730469 L 32.056641 84.107422 C 31.319539 84.076037 30.591269 84.049744 29.849609 84.015625 A 2.0002 2.0002 0 0 0 29.847656 84.015625 C 29.737677 84.010607 29.635146 83.982888 29.527344 83.970703 L 30.6875 82.119141 A 1.0001 1.0001 0 0 0 29.890625 80.576172 A 1.0001 1.0001 0 0 0 28.992188 81.056641 L 27.582031 83.310547 C 27.067548 82.995535 26.616451 82.592263 26.257812 82.109375 L 28.142578 79.728516 A 1.0001 1.0001 0 0 0 27.322266 78.097656 A 1.0001 1.0001 0 0 0 26.574219 78.486328 L 25.390625 79.982422 C 25.372367 79.861178 25.339262 79.745378 25.330078 79.621094 C 25.029331 73.535988 25.329512 67.194894 25.628906 60.763672 L 28.121094 62.835938 A 1.0001 1.0001 0 1 0 29.398438 61.298828 L 25.738281 58.255859 C 25.773619 57.463469 25.81207 56.677439 25.84375 55.882812 L 28.537109 58.160156 A 1.0001 1.0001 0 1 0 29.828125 56.632812 L 25.933594 53.337891 C 25.967962 52.255348 25.995429 51.172367 26.013672 50.087891 L 29.345703 52.128906 A 1.0001 1.0001 0 1 0 30.390625 50.423828 L 26.033203 47.751953 C 26.034468 47.320277 26.045527 46.888715 26.042969 46.457031 A 2.0002 2.0002 0 0 0 26.042969 46.423828 C 26.018719 45.325833 26.43324 44.264958 27.195312 43.474609 A 2.0002 2.0002 0 0 0 27.195312 43.472656 C 27.954683 42.684442 28.991436 42.234659 30.085938 42.214844 z M 58.308594 46.480469 A 1 1 0 0 0 58.308594 48.480469 A 1 1 0 0 0 58.308594 46.480469 z M 66.501953 46.480469 A 1 1 0 0 0 66.501953 48.480469 A 1 1 0 0 0 66.501953 46.480469 z M 63.308594 50.884766 A 1 1 0 0 0 63.308594 52.884766 A 1 1 0 0 0 63.308594 50.884766 z M 53.041016 53.060547 C 50.684994 53.114617 49.114619 53.64988 48.193359 54.697266 C 47.2721 55.744652 47.249425 57.123708 47.537109 58.255859 C 48.014775 60.135663 49.092658 61.521102 49.505859 62.027344 L 46.544922 74.806641 A 1.0001 1.0001 0 0 0 47.492188 76.03125 L 59.089844 76.351562 A 1.0001 1.0001 0 0 0 60.09375 75.138672 L 57.115234 61.458984 C 57.345207 61.004221 58.045273 59.551761 58.158203 57.710938 C 58.224283 56.633783 58.042479 55.413001 57.195312 54.466797 C 56.348148 53.520593 54.947155 53.016994 53.041016 53.060547 z M 53.085938 55.060547 C 54.637298 55.025097 55.340525 55.39361 55.705078 55.800781 C 56.069631 56.207953 56.209154 56.822998 56.162109 57.589844 C 56.068019 59.123535 55.183594 60.892578 55.183594 60.892578 A 1.0001 1.0001 0 0 0 55.091797 61.570312 L 57.869141 74.316406 L 55.572266 74.253906 L 55.933594 71.921875 A 1.0001 1.0001 0 0 0 54.886719 70.755859 A 1.0001 1.0001 0 0 0 53.957031 71.615234 L 53.556641 74.197266 L 51.765625 74.148438 L 52.953125 70.402344 A 1.0001 1.0001 0 0 0 51.994141 69.087891 A 1.0001 1.0001 0 0 0 51.044922 69.798828 L 49.685547 74.091797 L 48.769531 74.066406 L 51.558594 62.033203 A 1.0001 1.0001 0 0 0 51.347656 61.162109 C 51.347656 61.162109 49.872445 59.32162 49.476562 57.763672 C 49.278622 56.984698 49.322353 56.441598 49.695312 56.017578 C 50.06812 55.593732 51.021219 55.108314 53.085938 55.060547 z"/></svg>