<svg xmlns="http://www.w3.org/2000/svg"  viewBox="0 0 100 100" width="50px" height="50px"><path d="M 48.134766 12.957031 C 28.026829 13.05603 14.031219 30.333409 13.001953 49.894531 C 11.937592 70.117399 29.627796 85.984147 49.898438 86.998047 C 71.074026 88.056826 85.947891 70.021328 86.996094 50.105469 C 88.07447 29.611015 70.350232 14.014852 50.099609 13.001953 C 49.438476 12.968896 48.783409 12.953838 48.134766 12.957031 z M 48.148438 16.957031 C 48.725874 16.954469 49.309571 16.968604 49.898438 16.998047 C 50.987572 17.052523 52.067035 17.156571 53.134766 17.300781 L 52.052734 19.568359 A 1.0002693 1.0002693 0 1 0 53.857422 20.431641 L 55.191406 17.636719 C 56.804732 17.944324 58.385612 18.349031 59.921875 18.851562 L 58.009766 21.400391 A 1.0001 1.0001 0 1 0 59.609375 22.599609 L 61.886719 19.5625 C 63.507065 20.193533 65.069388 20.931007 66.5625 21.767578 L 64.873047 25.060547 A 1.0001 1.0001 0 1 0 66.652344 25.972656 L 68.283203 22.792969 C 69.444007 23.530525 70.554645 24.329958 71.609375 25.1875 L 69.371094 28.609375 A 1.0001 1.0001 0 1 0 71.042969 29.705078 L 73.134766 26.507812 C 74.314536 27.589346 75.408861 28.74879 76.408203 29.978516 L 74.292969 32.376953 A 1.0001 1.0001 0 1 0 75.791016 33.701172 L 77.646484 31.597656 C 78.584735 32.919915 79.420487 34.309902 80.132812 35.765625 L 77.863281 38.337891 A 1.0004441 1.0004441 0 1 0 79.363281 39.662109 L 81.017578 37.787109 C 82.498049 41.505974 83.22903 45.578957 83.001953 49.894531 C 82.050156 67.978672 68.924021 83.943174 50.099609 83.001953 C 48.025831 82.898227 45.988862 82.615861 44.001953 82.185547 L 44.001953 79 A 1.0001 1.0001 0 0 0 42.986328 77.986328 A 1.0001 1.0001 0 0 0 42.001953 79 L 42.001953 81.699219 C 40.471901 81.279475 38.980618 80.763822 37.535156 80.164062 L 38.894531 77.447266 A 1.0001 1.0001 0 0 0 37.955078 75.988281 A 1.0001 1.0001 0 0 0 37.107422 76.552734 L 35.707031 79.351562 C 34.229434 78.643421 32.808954 77.844698 31.457031 76.958984 L 35.708984 72.707031 A 1.0001 1.0001 0 0 0 34.980469 70.990234 A 1.0001 1.0001 0 0 0 34.292969 71.292969 L 29.791016 75.794922 C 28.690653 74.981213 27.644896 74.108544 26.658203 73.181641 L 28.859375 69.513672 A 1.0001 1.0001 0 0 0 28.033203 67.988281 A 1.0001 1.0001 0 0 0 27.142578 68.486328 L 25.197266 71.730469 C 24.262898 70.738196 23.401354 69.688601 22.605469 68.595703 L 25.78125 64.625 A 1.0001 1.0001 0 0 0 24.96875 62.990234 A 1.0001 1.0001 0 0 0 24.220703 63.375 L 21.425781 66.869141 C 20.756307 65.806214 20.159169 64.7016 19.628906 63.564453 L 22.78125 59.625 A 1.0001 1.0001 0 0 0 21.96875 57.990234 A 1.0001 1.0001 0 0 0 21.220703 58.375 L 18.748047 61.466797 C 18.248597 60.130897 17.851375 58.753472 17.556641 57.339844 L 20.447266 55.894531 A 1.0001 1.0001 0 0 0 20.005859 53.994141 A 1.0001 1.0001 0 0 0 19.554688 54.105469 L 17.201172 55.28125 C 16.979703 53.597158 16.903254 51.869426 16.996094 50.105469 C 17.887807 33.15852 29.081947 18.539335 45.582031 17.087891 L 44.142578 19.486328 A 1.0003534 1.0003534 0 1 0 45.859375 20.513672 L 47.990234 16.962891 C 48.043415 16.962386 48.095157 16.957268 48.148438 16.957031 z M 50.386719 33.341797 C 49.555381 33.263398 48.702188 33.586797 48.132812 34.279297 C 47.220812 35.387297 47.380281 37.027453 48.488281 37.939453 C 49.594281 38.851453 51.236438 38.690031 52.148438 37.582031 C 53.059437 36.474031 52.900969 34.835828 51.792969 33.923828 C 51.377469 33.581828 50.885521 33.388836 50.386719 33.341797 z M 50.128906 42.859375 A 2.0002 2.0002 0 0 0 48.191406 44.917969 L 48.515625 65.804688 A 2.0002441 2.0002441 0 0 0 52.515625 65.742188 L 52.191406 44.855469 A 2.0002 2.0002 0 0 0 50.128906 42.859375 z M 65.322266 64.267578 C 65.049641 64.229578 64.763844 64.294156 64.527344 64.472656 C 64.053344 64.830656 63.958406 65.504516 64.316406 65.978516 C 64.674406 66.452516 65.348266 66.546453 65.822266 66.189453 C 66.295266 65.831453 66.390203 65.156594 66.033203 64.683594 C 65.854203 64.447094 65.594891 64.305578 65.322266 64.267578 z M 58.294922 69.572266 C 58.022297 69.534266 57.734547 69.598844 57.498047 69.777344 C 57.024047 70.134344 56.931062 70.809203 57.289062 71.283203 C 57.647062 71.756203 58.321922 71.851141 58.794922 71.494141 C 59.267922 71.137141 59.363859 70.461281 59.005859 69.988281 C 58.826859 69.751781 58.567547 69.610266 58.294922 69.572266 z M 65.435547 70.111328 C 65.162922 70.073453 64.875172 70.139859 64.638672 70.318359 C 64.165672 70.675359 64.072688 71.350219 64.429688 71.824219 C 64.787688 72.297219 65.462547 72.390203 65.935547 72.033203 C 66.408547 71.675203 66.501531 71.000344 66.144531 70.527344 C 65.965531 70.290344 65.708172 70.149203 65.435547 70.111328 z"/></svg>