<svg xmlns="http://www.w3.org/2000/svg"  viewBox="0 0 100 100" width="50px" height="50px"><path d="M 50.357422 10.378906 A 2.0002 2.0002 0 0 0 48.970703 11.015625 L 14.611328 47.957031 A 2.0004107 2.0004107 0 1 0 17.541016 50.681641 L 21.574219 46.34375 L 22.699219 84.007812 C 21.137799 84.099923 19.61824 84.142842 18.044922 84.248047 A 2.0005721 2.0005721 0 1 0 18.3125 88.240234 C 42.369326 86.631595 64.973524 86.575328 87.265625 87.726562 A 2.0002 2.0002 0 1 0 87.472656 83.732422 C 85.384906 83.624604 83.27411 83.582594 81.179688 83.496094 L 80.664062 43.935547 L 84.304688 47.404297 A 2.0003705 2.0003705 0 1 0 87.064453 44.507812 L 71.783203 29.951172 L 74.142578 14.103516 A 2.0002 2.0002 0 0 0 72.146484 11.808594 L 62.367188 11.902344 A 2.0002 2.0002 0 0 0 60.386719 13.832031 L 60.208984 18.925781 L 51.816406 10.929688 A 2.0002 2.0002 0 0 0 50.357422 10.378906 z M 50.521484 15.222656 L 76.613281 40.076172 L 76.613281 40.132812 L 58.283203 40.75 L 58.763672 39.449219 A 1.0001 1.0001 0 0 0 57.869141 38.089844 A 1.0001 1.0001 0 0 0 56.886719 38.755859 L 56.121094 40.822266 L 42.121094 41.294922 L 42.349609 40.279297 A 1.0007626 1.0007626 0 1 0 40.396484 39.841797 L 40.056641 41.363281 L 38.251953 41.423828 L 39.181641 39.75 A 1.0001 1.0001 0 1 0 37.433594 38.779297 L 35.921875 41.501953 L 33.699219 41.578125 L 34.396484 39.806641 A 1.000123 1.000123 0 1 0 32.535156 39.074219 L 31.521484 41.650391 L 25.759766 41.845703 L 50.521484 15.222656 z M 69.841797 15.830078 L 68.240234 26.576172 L 64.083984 22.615234 L 64.318359 15.882812 L 69.841797 15.830078 z M 50.5 24.0625 C 49.89377 24.09578 49.5 24.197266 49.5 24.197266 A 1.0001 1.0001 0 0 0 49.316406 24.259766 C 49.316406 24.259766 48.031022 24.838523 46.806641 25.974609 C 45.582259 27.110696 44.316226 28.942299 44.585938 31.3125 C 44.741059 32.675707 45.656653 33.731961 46.771484 34.392578 C 47.886315 35.053195 49.237902 35.386769 50.595703 35.371094 C 51.953504 35.355414 53.33986 34.984221 54.429688 34.095703 C 55.519514 33.207185 56.236543 31.77378 56.224609 29.992188 A 1.0001 1.0001 0 0 0 56.224609 29.990234 C 56.213089 28.311302 55.822856 27.024504 55.167969 26.087891 C 54.513081 25.151277 53.612 24.610441 52.767578 24.337891 C 51.923157 24.065386 51.10623 24.029222 50.5 24.0625 z M 50.755859 26.066406 C 51.145741 26.050944 51.651459 26.077934 52.154297 26.240234 C 52.678125 26.409309 53.148169 26.692083 53.527344 27.234375 C 53.906519 27.776667 54.21513 28.622338 54.224609 30.003906 C 54.233209 31.282814 53.810783 32.021206 53.166016 32.546875 C 52.521248 33.072544 51.576793 33.359519 50.574219 33.371094 C 49.571645 33.382664 48.533028 33.111571 47.791016 32.671875 C 47.049003 32.232179 46.641143 31.69123 46.572266 31.085938 C 46.393976 29.519137 47.202897 28.33507 48.166016 27.441406 C 49.082399 26.591108 49.957572 26.191442 50.048828 26.148438 C 50.091933 26.139788 50.365978 26.081869 50.755859 26.066406 z M 76.640625 42.132812 L 76.806641 54.828125 L 73.865234 53.785156 A 1.0001 1.0001 0 0 0 73.472656 53.724609 A 1.0001 1.0001 0 0 0 73.197266 55.669922 L 76.833984 56.960938 L 76.867188 59.476562 L 70.949219 57.853516 A 1.0001 1.0001 0 0 0 70.652344 57.8125 A 1.0001 1.0001 0 0 0 70.419922 59.78125 L 76.894531 61.556641 L 77.048828 73.339844 C 76.000107 73.358319 74.932569 73.38974 73.900391 73.396484 L 72.445312 69.660156 A 1.0001 1.0001 0 0 0 71.521484 69.009766 A 1.0001 1.0001 0 0 0 70.582031 70.386719 L 71.767578 73.435547 C 71.120831 73.441647 70.451871 73.462923 69.802734 73.470703 L 68.794922 70.384766 A 1.0005835 1.0005835 0 1 0 66.892578 71.005859 L 67.708984 73.509766 C 58.002691 73.652585 48.027652 73.987162 37.794922 74.505859 L 38.943359 71.261719 A 1.0001 1.0001 0 1 0 37.058594 70.59375 L 35.634766 74.613281 C 34.794979 74.657851 33.970235 74.691221 33.126953 74.738281 L 34.675781 71.582031 A 1.0001 1.0001 0 1 0 32.880859 70.701172 L 30.84375 74.853516 C 29.381547 74.938726 27.984327 74.977676 26.511719 75.070312 L 28.671875 73.699219 A 1.0005006 1.0005006 0 1 0 27.599609 72.009766 L 26.367188 72.791016 L 26.300781 70.558594 L 28.0625 69.4375 A 1.0001 1.0001 0 0 0 27.527344 67.585938 A 1.0001 1.0001 0 0 0 26.990234 67.75 L 26.230469 68.232422 L 25.894531 57.005859 L 28.498047 56.078125 A 1.0001 1.0001 0 0 0 28.189453 54.130859 A 1.0001 1.0001 0 0 0 27.828125 54.193359 L 25.832031 54.904297 L 25.775391 52.998047 L 28.957031 51.251953 A 1.0001 1.0001 0 0 0 28.441406 49.371094 A 1.0001 1.0001 0 0 0 27.994141 49.5 L 25.708984 50.753906 L 25.501953 43.853516 L 56.310547 42.818359 A 1.0001 1.0001 0 0 0 57.302734 42.783203 L 76.640625 42.132812 z M 65.464844 44.869141 A 1 1 0 0 0 65.464844 46.869141 A 1 1 0 0 0 65.464844 44.869141 z M 73.65625 44.869141 A 1 1 0 0 0 73.65625 46.869141 A 1 1 0 0 0 73.65625 44.869141 z M 59.935547 48.037109 L 43.173828 49.005859 A 1.0001 1.0001 0 0 0 42.234375 50.0625 L 43.333984 68.832031 A 1.0001 1.0001 0 0 0 44.351562 69.773438 L 60.382812 69.464844 A 1.0001 1.0001 0 0 0 61.363281 68.447266 L 60.994141 49.017578 A 1.0001 1.0001 0 0 0 59.935547 48.037109 z M 70.464844 49.273438 A 1 1 0 0 0 70.464844 51.273438 A 1 1 0 0 0 70.464844 49.273438 z M 59.013672 50.095703 L 59.123047 55.808594 L 52.660156 56.121094 L 52.412109 50.476562 L 59.013672 50.095703 z M 50.416016 50.591797 L 50.662109 56.21875 L 44.615234 56.509766 L 44.289062 50.943359 L 50.416016 50.591797 z M 59.160156 57.810547 L 59.34375 67.486328 L 53.162109 67.605469 L 52.748047 58.119141 L 59.160156 57.810547 z M 50.75 58.216797 L 51.162109 67.642578 L 45.273438 67.755859 L 44.732422 58.507812 L 50.75 58.216797 z M 77.074219 75.328125 L 77.179688 83.345703 C 72.507933 83.184032 67.807547 83.08345 63.078125 83.035156 L 63.808594 81.091797 A 1.0001 1.0001 0 0 0 62.820312 79.728516 A 1.0001 1.0001 0 0 0 61.935547 80.388672 L 60.947266 83.019531 C 59.020426 83.006981 57.087065 83.004836 55.148438 83.011719 L 55.714844 80.847656 A 1.0001 1.0001 0 0 0 54.792969 79.580078 A 1.0001 1.0001 0 0 0 53.78125 80.341797 L 53.080078 83.017578 C 52.348409 83.022803 51.614359 83.031033 50.880859 83.039062 L 51.683594 80.117188 A 1.0001 1.0001 0 0 0 50.675781 78.839844 A 1.0001 1.0001 0 0 0 49.753906 79.587891 L 48.800781 83.068359 C 47.205023 83.091562 45.605064 83.121583 44 83.158203 L 44.1875 80.558594 A 1.0001 1.0001 0 0 0 43.148438 79.472656 A 1.0001 1.0001 0 0 0 42.193359 80.414062 L 41.990234 83.208984 C 41.064101 83.23331 40.140387 83.252408 39.210938 83.28125 L 40.210938 80.546875 A 1.0001 1.0001 0 0 0 39.310547 79.189453 A 1.0001 1.0001 0 0 0 38.332031 79.859375 L 37.054688 83.359375 C 36.303946 83.385428 35.553796 83.410433 34.800781 83.439453 L 35.759766 80.498047 A 1.0001 1.0001 0 0 0 34.8125 79.173828 A 1.0001 1.0001 0 0 0 33.857422 79.878906 L 32.669922 83.521484 C 31.994798 83.549945 31.313748 83.586329 30.636719 83.617188 L 31.09375 82.400391 A 1.0001 1.0001 0 0 0 30.205078 81.037109 A 1.0001 1.0001 0 0 0 29.220703 81.699219 L 28.462891 83.71875 C 27.872518 83.747818 27.287188 83.769881 26.695312 83.800781 L 26.494141 77.054688 C 44.109356 75.943446 60.975325 75.364897 77.074219 75.328125 z"/></svg>