<svg xmlns="http://www.w3.org/2000/svg"  viewBox="0 0 100 100" width="50px" height="50px"><path d="M 52.810547 13 A 2.0002 2.0002 0 0 0 50.84375 14.501953 C 47.020191 29.358161 42.579219 43.192518 37.460938 55.894531 C 35.758792 54.866842 33.97413 53.969974 32.09375 53.238281 C 21.485808 49.109684 10.077073 53.792331 7.1132812 62.896484 C 5.6258419 67.463798 6.8274759 72.060467 9.5371094 75.863281 C 12.246743 79.666096 16.4126 82.847663 21.234375 85.265625 C 26.334606 87.823411 31.869641 87.300018 36.400391 85.271484 C 40.931141 83.24291 44.600347 79.778305 46.314453 75.865234 C 46.483755 75.478815 46.501317 75.341055 46.59375 75.013672 C 46.68618 74.686288 46.798127 74.272771 46.929688 73.769531 C 47.192805 72.763053 47.536952 71.40639 47.951172 69.785156 C 48.779612 66.542689 49.884822 62.244836 51.152344 57.658203 C 53.606564 48.777403 56.72815 38.905662 59.386719 33.689453 C 60.730049 33.195216 62.760546 33.114931 65.216797 33.482422 L 61.791016 38.179688 A 1.0001 1.0001 0 1 0 63.40625 39.357422 L 67.310547 34.003906 A 1.0001 1.0001 0 0 0 67.376953 33.904297 C 68.700733 34.214621 70.109932 34.644687 71.583984 35.193359 L 68.095703 38.654297 A 1.0005896 1.0005896 0 0 0 69.505859 40.074219 L 73.603516 36.003906 C 75.220023 36.699736 76.877354 37.51206 78.552734 38.425781 L 74.128906 41.580078 A 1.0001 1.0001 0 1 0 75.289062 43.208984 L 80.375 39.582031 A 1.0001 1.0001 0 0 0 80.472656 39.503906 C 81.615748 40.17619 82.755999 40.90253 83.890625 41.658203 L 80.662109 44.865234 A 1.0001 1.0001 0 1 0 82.072266 46.283203 L 85.574219 42.806641 C 86.647972 43.565339 87.702955 44.361681 88.742188 45.183594 L 86.425781 47.482422 A 1.00059 1.00059 0 1 0 87.835938 48.902344 L 90.304688 46.449219 C 90.931822 46.974776 91.556865 47.503381 92.162109 48.048828 A 2.0002 2.0002 0 0 0 95.392578 45.914062 C 93.502158 40.415714 91.408514 34.727536 86.763672 29.5625 C 82.124566 24.403842 75.02198 19.88345 63.449219 16.371094 L 63.439453 16.367188 L 53.400391 13.097656 A 2.0002 2.0002 0 0 0 52.810547 13 z M 54.128906 17.542969 L 62.210938 20.173828 A 2.0002 2.0002 0 0 0 62.25 20.185547 C 73.374849 23.556342 79.719154 27.710615 83.789062 32.236328 C 86.061464 34.763225 87.598206 37.4766 88.884766 40.296875 C 84.184676 36.856891 79.217803 33.984256 74.503906 32.029297 C 67.735131 29.222133 61.496918 27.953374 56.984375 30.277344 A 2.0002 2.0002 0 0 0 56.138672 31.109375 C 52.998015 36.958735 49.855331 47.335765 47.296875 56.59375 C 46.017647 61.222743 44.906169 65.546358 44.076172 68.794922 C 43.661173 70.419204 43.315311 71.775819 43.058594 72.757812 C 42.930235 73.248809 42.823367 73.647129 42.744141 73.927734 C 42.664911 74.20834 42.557214 74.472435 42.650391 74.259766 C 41.458497 76.980695 38.440625 79.975668 34.765625 81.621094 C 33.359723 82.250565 31.878783 82.689242 30.369141 82.886719 L 31.394531 81.470703 A 1.0001 1.0001 0 0 0 30.603516 79.873047 A 1.0001 1.0001 0 0 0 29.773438 80.298828 L 27.841797 82.96875 C 26.411454 82.882955 24.978647 82.56427 23.580078 81.945312 L 27.626953 77.898438 A 1.0001 1.0001 0 0 0 26.898438 76.181641 A 1.0001 1.0001 0 0 0 26.210938 76.484375 L 21.708984 80.988281 C 20.564023 80.356342 19.472534 79.68224 18.458984 78.966797 L 21.863281 76.521484 A 1.0001 1.0001 0 0 0 21.222656 74.703125 A 1.0001 1.0001 0 0 0 20.695312 74.898438 L 16.796875 77.697266 C 15.777672 76.86552 14.863133 75.996792 14.064453 75.103516 L 17.757812 71.410156 A 1.0001 1.0001 0 0 0 17.03125 69.693359 A 1.0001 1.0001 0 0 0 16.34375 69.996094 L 12.796875 73.542969 C 12.796357 73.542242 12.79544 73.541743 12.794922 73.541016 C 12.008644 72.43752 11.415685 71.333067 11.017578 70.21875 L 14.242188 66.992188 A 1.0001 1.0001 0 0 0 13.515625 65.275391 A 1.0001 1.0001 0 0 0 12.828125 65.578125 L 10.492188 67.914062 C 10.370155 66.675844 10.497483 65.419908 10.916016 64.134766 C 13.050224 57.578919 21.882521 53.555441 30.642578 56.964844 A 2.0002 2.0002 0 0 0 30.642578 56.966797 C 33.20374 57.963396 35.475497 59.061707 37.234375 60.472656 A 2.0002 2.0002 0 0 0 40.332031 59.677734 C 45.674292 46.779189 50.178764 32.591931 54.128906 17.542969 z M 64.388672 23.1875 C 63.846672 23.2935 63.493609 23.820328 63.599609 24.361328 C 63.705609 24.902328 64.231437 25.256391 64.773438 25.150391 C 65.314437 25.044391 65.6685 24.518563 65.5625 23.976562 C 65.4555 23.434563 64.928672 23.0805 64.388672 23.1875 z M 54.599609 25.244141 C 54.058609 25.350141 53.7065 25.875969 53.8125 26.417969 C 53.9185 26.958969 54.444328 27.311078 54.986328 27.205078 C 55.528328 27.099078 55.881391 26.57325 55.775391 26.03125 C 55.668391 25.49025 55.141609 25.137141 54.599609 25.244141 z M 31.583984 63.429688 A 1 1 0 0 0 31.583984 65.429688 A 1 1 0 0 0 31.583984 63.429688 z M 37.507812 69.710938 A 1 1 0 0 0 37.507812 71.710938 A 1 1 0 0 0 37.507812 69.710938 z M 31.714844 73.429688 A 1 1 0 0 0 31.714844 75.429688 A 1 1 0 0 0 31.714844 73.429688 z"/></svg>