<svg xmlns="http://www.w3.org/2000/svg"  viewBox="0 0 100 100" width="50px" height="50px"><path d="M 68.158203 7.7558594 C 64.41392 7.8297961 60.505728 8.7546874 56.630859 10.707031 C 48.838815 14.632751 45.781053 22.951948 44.591797 29.970703 C 43.558839 36.067013 43.884331 40.726819 43.992188 42.037109 L 10.894531 73.546875 A 2.0002 2.0002 0 0 0 10.285156 75.220703 L 11.423828 85.263672 A 2.0002 2.0002 0 0 0 13.189453 87.027344 L 26.097656 88.466797 A 2.0002 2.0002 0 0 0 28.320312 86.525391 L 28.519531 78.070312 L 37.292969 78.908203 A 2.0002 2.0002 0 0 0 39.476562 77.068359 L 40.107422 68.697266 L 48.066406 70.037109 A 2.0002 2.0002 0 0 0 50.398438 68.074219 L 50.425781 61.648438 L 55.732422 56.505859 C 57.129765 56.823499 61.541634 57.765993 67.515625 57.71875 C 74.524773 57.66332 83.021036 56.113107 87.689453 49.369141 C 95.871042 37.549707 94.25703 24.709856 87.408203 16.523438 C 83.127686 11.406925 76.787275 8.0910465 69.751953 7.7753906 C 69.224304 7.7517164 68.693101 7.745297 68.158203 7.7558594 z M 68.287109 11.699219 C 68.296291 11.699004 68.305274 11.699421 68.314453 11.699219 L 68.021484 14.078125 A 1.0001 1.0001 0 1 0 70.005859 14.322266 L 70.322266 11.761719 C 75.943408 12.197207 80.885659 14.963003 84.339844 19.091797 C 86.792748 22.023759 88.479399 25.635126 89.054688 29.625 L 86.162109 30.630859 A 1.0001 1.0001 0 1 0 86.818359 32.519531 L 89.257812 31.671875 C 89.472936 36.413827 88.099901 41.597754 84.601562 46.777344 L 82.947266 44.640625 A 1.0001 1.0001 0 0 0 82.173828 44.242188 A 1.0001 1.0001 0 0 0 81.365234 45.865234 L 83.328125 48.402344 C 82.636 49.146078 81.861851 49.799606 81.013672 50.363281 L 78.792969 46.085938 A 1.0001 1.0001 0 0 0 77.904297 45.533203 A 1.0001 1.0001 0 0 0 77.017578 47.007812 L 79.279297 51.361328 C 75.797921 53.074671 71.531667 53.686743 67.484375 53.71875 C 66.333252 53.727853 65.232712 53.680813 64.167969 53.615234 L 64.976562 49.171875 A 1.0001 1.0001 0 0 0 63.960938 47.980469 A 1.0001 1.0001 0 0 0 63.009766 48.814453 L 62.164062 53.457031 C 58.313969 53.075256 55.570313 52.408203 55.570312 52.408203 A 2.0002 2.0002 0 0 0 53.695312 52.912109 L 52.482422 54.087891 L 51.46875 52.15625 A 1.0001 1.0001 0 0 0 50.578125 51.607422 A 1.0001 1.0001 0 0 0 49.697266 53.085938 L 50.984375 55.537109 L 49.753906 56.730469 L 49.017578 55.349609 A 1.0001 1.0001 0 0 0 48.123047 54.806641 A 1.0001 1.0001 0 0 0 47.251953 56.289062 L 48.257812 58.177734 L 47.037109 59.361328 A 2.0002 2.0002 0 0 0 46.429688 60.789062 L 46.408203 65.701172 L 38.609375 64.390625 A 2.0002 2.0002 0 0 0 36.283203 66.210938 L 35.640625 74.734375 L 26.759766 73.886719 A 2.0002 2.0002 0 0 0 24.570312 75.830078 L 24.371094 84.25 L 20.603516 83.830078 L 21.240234 82.019531 A 1.0001 1.0001 0 0 0 20.324219 80.673828 A 1.0001 1.0001 0 0 0 19.353516 81.355469 L 18.5625 83.601562 L 15.21875 83.228516 L 15.142578 82.548828 L 46.164062 53.251953 A 1.0001 1.0001 0 0 0 45.486328 51.513672 A 1.0001 1.0001 0 0 0 44.791016 51.796875 L 14.861328 80.064453 L 14.373047 75.757812 L 46.625 45.052734 L 47.888672 49.712891 A 1.0001 1.0001 0 1 0 49.818359 49.189453 L 48.068359 42.740234 A 1.0001 1.0001 0 0 0 48.009766 42.574219 C 47.986911 42.340593 47.471771 36.914564 48.535156 30.638672 C 48.586169 30.337608 48.658507 30.033085 48.716797 29.730469 L 52.833984 29.958984 A 1.0001 1.0001 0 1 0 52.945312 27.962891 L 49.150391 27.751953 C 49.339675 26.992028 49.544722 26.234319 49.789062 25.486328 L 54.603516 26.197266 A 1.0001 1.0001 0 1 0 54.896484 24.21875 L 50.488281 23.568359 C 52.07876 19.675251 54.573946 16.222847 58.431641 14.279297 C 61.805053 12.579609 65.132728 11.772848 68.287109 11.699219 z M 71.820312 18.914062 A 2.0002 2.0002 0 0 0 71.802734 18.916016 C 71.802734 18.916016 69.48735 18.968436 67.283203 20.285156 C 66.18113 20.943517 65.048467 21.98776 64.408203 23.507812 C 63.76794 25.027866 63.674353 26.92406 64.246094 29.0625 C 64.363072 29.499917 64.510981 29.90841 64.675781 30.300781 L 63.048828 31.417969 A 1.0001 1.0001 0 1 0 64.179688 33.066406 L 65.65625 32.054688 C 65.991345 32.516699 66.36292 32.93011 66.763672 33.296875 L 64.369141 36.476562 A 1.0001 1.0001 0 1 0 65.964844 37.679688 L 68.394531 34.455078 C 68.859 34.70506 69.339558 34.906845 69.830078 35.058594 L 69.269531 38.386719 A 1.0002025 1.0002025 0 0 0 71.242188 38.71875 L 71.800781 35.404297 C 72.045597 35.414863 72.289431 35.417691 72.53125 35.404297 C 75.887469 35.218402 79.188562 33.103313 79.873047 29.580078 C 80.535101 26.171593 78.455429 23.449272 76.597656 21.765625 C 74.739883 20.081978 72.787109 19.123047 72.787109 19.123047 A 2.0002 2.0002 0 0 0 71.820312 18.914062 z M 71.509766 23.056641 C 71.906438 23.271582 72.768117 23.693518 73.910156 24.728516 C 75.293133 25.981868 76.220258 27.402844 75.945312 28.818359 C 75.692797 30.118124 74.099828 31.311051 72.310547 31.410156 C 70.521266 31.509256 68.874736 30.893393 68.109375 28.029297 C 67.709116 26.532237 67.844144 25.653151 68.09375 25.060547 C 68.343361 24.467943 68.763558 24.059514 69.333984 23.71875 C 70.268451 23.160515 71.111282 23.105745 71.509766 23.056641 z M 53.662109 36 C 53.416984 35.990875 53.168609 36.075859 52.974609 36.255859 C 52.587609 36.614859 52.563828 37.221375 52.923828 37.609375 C 53.283828 37.997375 53.890344 38.019156 54.277344 37.660156 C 54.664344 37.300156 54.688125 36.692687 54.328125 36.304688 C 54.148625 36.111188 53.907234 36.009125 53.662109 36 z M 58.574219 38.119141 C 58.328969 38.110016 58.080719 38.193047 57.886719 38.373047 C 57.499719 38.732047 57.475938 39.340516 57.835938 39.728516 C 58.195938 40.116516 58.803406 40.138297 59.191406 39.779297 C 59.578406 39.419297 59.600234 38.811828 59.240234 38.423828 C 59.060234 38.230328 58.819469 38.128266 58.574219 38.119141 z M 67.310547 40.625 C 67.065422 40.615875 66.815094 40.700859 66.621094 40.880859 C 66.234094 41.240859 66.212266 41.846375 66.572266 42.234375 C 66.932266 42.622375 67.538781 42.644203 67.925781 42.283203 C 68.312781 41.924203 68.336562 41.317687 67.976562 40.929688 C 67.797062 40.736188 67.555672 40.634125 67.310547 40.625 z"/></svg>