<svg xmlns="http://www.w3.org/2000/svg"  viewBox="0 0 100 100" width="50px" height="50px"><path d="M 50.5 8.5605469 A 2.0002 2.0002 0 0 0 50.126953 8.5898438 C 39.430355 10.468622 32.644394 18.888613 30.634766 21.761719 C 29.675265 23.133489 29.659276 24.554398 29.679688 26.072266 C 29.700097 27.590133 29.909708 29.21763 30.171875 30.748047 C 30.379172 31.958153 30.615496 33.053195 30.833984 34.003906 C 30.791285 34.005111 30.752099 33.999862 30.708984 34.001953 C 29.585332 34.056443 28.13879 34.624049 27.308594 35.882812 C 26.478397 37.141577 26.263567 38.743432 26.458984 40.785156 C 26.829563 44.656974 27.878048 47.434784 29.746094 49.099609 C 30.680117 49.932022 31.940105 50.45619 33.220703 50.320312 C 33.246783 50.317512 33.267019 50.298202 33.292969 50.294922 C 33.557324 51.629667 33.846674 53.013368 33.945312 54.59375 C 34.018422 55.758727 34.397272 57.048885 35.050781 58.605469 C 35.209928 58.984539 35.387781 59.375998 35.582031 59.773438 A 2.0002596 2.0002596 0 0 0 35.542969 60.183594 C 35.542969 60.183594 35.724997 65.351202 30.75 67.716797 C 24.565344 70.65758 14.580078 76.300781 14.580078 76.300781 A 2.0002 2.0002 0 0 0 13.646484 78.617188 L 17.255859 90.644531 A 2.0002 2.0002 0 0 0 19.1875 92.068359 L 80.669922 91.556641 A 2.0002 2.0002 0 0 0 82.578125 90.099609 L 85.861328 78.501953 A 2.0002 2.0002 0 0 0 84.716797 76.115234 C 84.716797 76.115234 80.665917 74.396631 76.396484 72.21875 C 74.261768 71.129809 72.074805 69.92424 70.365234 68.802734 C 68.655664 67.681228 67.443452 66.432638 67.363281 66.275391 C 65.627398 62.87063 65.271484 59.265625 65.271484 59.265625 A 2.0002 2.0002 0 0 0 65.246094 59.066406 C 65.936178 57.806488 66.430193 56.622617 66.697266 55.621094 C 67.313351 53.310773 68.02262 51.728917 68.597656 50.314453 C 69.108761 50.497268 69.611033 50.71475 70.283203 50.667969 C 71.211623 50.603349 72.215184 50.160393 72.990234 49.414062 C 73.952483 48.487471 74.402451 47.400128 74.876953 46.111328 C 75.351455 44.822528 75.733159 43.359941 75.982422 41.90625 C 76.231684 40.452559 76.358085 39.030425 76.230469 37.722656 C 76.166659 37.068772 76.047936 36.435935 75.746094 35.789062 C 75.444251 35.142192 74.859157 34.404772 73.955078 34.082031 C 73.658862 33.976266 73.36553 33.900357 73.076172 33.84375 C 73.673571 30.128804 72.305655 27.158639 70.917969 25.115234 C 71.328252 24.989259 71.568462 24.998025 72.041016 24.810547 A 2.0002 2.0002 0 0 0 73.142578 22.164062 C 72.252122 20.086332 70.676529 18.678376 69.277344 17.744141 C 69.521359 17.497751 69.667608 17.421568 69.941406 17.115234 A 2.0002 2.0002 0 0 0 69.917969 14.423828 C 66.114284 10.315192 60.924057 9.8908843 57.015625 10.462891 C 55.267991 10.71866 53.814794 11.17927 52.619141 11.597656 C 52.529625 10.92283 52.650993 10.986382 52.40625 10.052734 A 2.0002 2.0002 0 0 0 50.5 8.5605469 z M 48.847656 13.048828 C 48.860166 13.314695 49.029297 14.208984 49.029297 14.208984 A 2.0002 2.0002 0 0 0 51.931641 16.136719 C 51.931641 16.136719 52.145798 16.035413 52.478516 15.890625 L 51.320312 17.626953 A 1.0001 1.0001 0 1 0 52.984375 18.736328 L 55.587891 14.832031 C 56.066303 14.708854 56.578525 14.599158 57.113281 14.505859 L 55.755859 16.365234 A 1.0001 1.0001 0 1 0 57.371094 17.544922 L 59.708984 14.341797 A 1.0001 1.0001 0 0 0 59.763672 14.263672 C 60.496425 14.265385 61.230759 14.335556 61.957031 14.478516 L 60.597656 15.755859 A 1.0001 1.0001 0 1 0 61.966797 17.212891 L 64.128906 15.181641 C 64.57337 15.387797 65.012244 15.618124 65.435547 15.908203 C 65.388797 15.945433 65.274607 16.071149 65.234375 16.101562 C 64.890002 16.361899 64.947266 16.3125 64.947266 16.3125 A 2.0002 2.0002 0 0 0 65.019531 20.015625 C 65.019531 20.015625 66.494836 20.756813 67.787109 21.806641 C 67.746999 21.806883 67.572266 21.824219 67.572266 21.824219 A 2.0002 2.0002 0 0 0 66.015625 25.341797 C 66.015625 25.341797 70.433189 28.979815 68.902344 34.207031 A 2.0006266 2.0006266 0 0 0 68.826172 34.648438 C 68.73891 34.706353 68.64535 34.76172 68.566406 34.822266 C 67.417136 35.703691 66.882812 36.822266 66.882812 36.822266 A 2.0002757 2.0002757 0 1 0 70.472656 38.587891 C 70.472656 38.587891 70.646224 38.268918 71.001953 37.996094 C 71.284835 37.779139 71.60021 37.671952 72.181641 37.783203 C 72.208311 37.893176 72.229607 37.922381 72.248047 38.111328 C 72.318927 38.837715 72.249247 40.016035 72.041016 41.230469 C 71.832778 42.444903 71.496045 43.717363 71.123047 44.730469 C 70.750049 45.743575 70.224095 46.524295 70.214844 46.533203 C 70.018395 46.722373 70.024409 46.676443 70.005859 46.677734 C 69.987309 46.679034 69.881934 46.670531 69.712891 46.587891 C 69.374803 46.422573 69.03125 46.078125 69.03125 46.078125 A 2.0002 2.0002 0 0 0 65.6875 46.595703 C 65.6875 46.595703 63.82461 50.867674 62.832031 54.589844 C 62.513367 55.784836 60.975235 58.885461 58.654297 61.376953 C 56.890069 63.270825 54.726514 64.848419 52.28125 65.53125 L 52.224609 63.388672 A 1.0001 1.0001 0 0 0 51.183594 62.400391 A 1.0001 1.0001 0 0 0 50.224609 63.439453 L 50.287109 65.861328 C 50.152781 65.86997 50.022393 65.89363 49.886719 65.896484 C 49.149807 65.911918 48.462265 65.824716 47.798828 65.691406 L 48.865234 62.929688 A 1.0001 1.0001 0 0 0 47.892578 61.558594 A 1.0001 1.0001 0 0 0 47 62.208984 L 45.880859 65.105469 C 45.006926 64.72096 44.211151 64.205458 43.478516 63.609375 L 45.802734 61.039062 A 1.0001 1.0001 0 0 0 45.091797 59.359375 A 1.0001 1.0001 0 0 0 44.320312 59.697266 L 42.023438 62.236328 C 41.700999 61.883135 41.390663 61.518486 41.099609 61.138672 C 40.850791 60.813973 40.617481 60.480583 40.396484 60.146484 L 42.613281 57.841797 A 1.0001 1.0001 0 0 0 41.853516 56.140625 A 1.0001 1.0001 0 0 0 41.171875 56.455078 L 39.349609 58.349609 C 39.121383 57.905817 38.911335 57.468834 38.738281 57.056641 C 38.577572 56.67385 38.450508 56.313383 38.339844 55.972656 L 40.380859 54.582031 A 1.0001 1.0001 0 0 0 39.789062 52.748047 A 1.0001 1.0001 0 0 0 39.255859 52.929688 L 37.896484 53.855469 C 37.659038 50.986723 37.026368 49.434951 36.832031 47.029297 A 2.0002 2.0002 0 0 0 33.273438 45.947266 C 32.966693 46.333592 32.815605 46.340017 32.798828 46.341797 C 32.782048 46.343597 32.709728 46.383747 32.40625 46.113281 C 31.799296 45.572357 30.751874 43.66848 30.439453 40.404297 C 30.29337 38.878021 30.560837 38.215798 30.646484 38.085938 C 30.732134 37.956077 30.634124 38.011057 30.902344 37.998047 C 31.438789 37.972027 32.701172 38.503906 32.701172 38.503906 A 2.0005292 2.0005292 0 0 0 35.363281 35.685547 A 2.0002 2.0002 0 0 0 35.302734 35.421875 C 35.302734 35.421875 34.5974 32.886932 34.115234 30.072266 C 33.874152 28.664933 33.693512 27.190898 33.677734 26.017578 C 33.661954 24.844258 33.96161 23.983917 33.912109 24.054688 C 34.878764 22.672691 37.529068 19.455939 41.376953 16.734375 L 42.449219 18.486328 A 1.0002174 1.0002174 0 1 0 44.15625 17.443359 L 43.048828 15.636719 C 43.490248 15.36831 43.941852 15.108545 44.408203 14.861328 L 45.466797 17.884766 A 1.0001 1.0001 0 1 0 47.353516 17.224609 L 46.222656 13.992188 C 47.066695 13.63021 47.939871 13.30773 48.847656 13.048828 z M 43.277344 22.308594 A 1.0001 1.0001 0 0 0 42.652344 22.509766 L 40.121094 24.359375 C 40.029928 24.297075 39.851562 24.177734 39.851562 24.177734 A 1.0001 1.0001 0 0 0 39.292969 23.988281 A 1.0001 1.0001 0 0 0 38.699219 25.8125 C 38.699219 25.8125 41.88572 28.062972 45.929688 29.894531 C 49.973653 31.72609 54.955166 33.309311 58.783203 31.371094 C 61.922662 29.781519 63.588197 29.876264 64.390625 30.164062 C 65.193053 30.451863 65.271484 30.828125 65.271484 30.828125 A 1.0001 1.0001 0 1 0 67.130859 30.09375 C 67.130859 30.09375 66.557229 28.81595 65.066406 28.28125 C 63.575584 27.74655 61.306401 27.851512 57.880859 29.585938 C 56.897324 30.083922 55.674215 30.243928 54.339844 30.175781 L 55.009766 28.824219 A 1.0001 1.0001 0 0 0 54.064453 27.369141 A 1.0001 1.0001 0 0 0 53.216797 27.9375 L 52.246094 29.898438 C 51.473917 29.743907 50.688174 29.541841 49.900391 29.289062 L 51.65625 27.089844 A 1.0001 1.0001 0 0 0 50.841797 25.455078 A 1.0001 1.0001 0 0 0 50.09375 25.841797 L 47.921875 28.566406 C 47.528416 28.406811 47.135913 28.245281 46.753906 28.072266 C 46.397434 27.910815 46.056019 27.742692 45.714844 27.576172 L 47.767578 25.943359 A 1.0001 1.0001 0 0 0 47.140625 24.152344 A 1.0001 1.0001 0 0 0 46.523438 24.378906 L 43.863281 26.492188 A 1.0001893 1.0001893 0 0 0 43.777344 26.570312 C 43.10002 26.19816 42.461824 25.834567 41.931641 25.513672 L 43.832031 24.123047 A 1.0001 1.0001 0 0 0 43.277344 22.308594 z M 51.277344 37.513672 A 1.0001 1.0001 0 0 0 50.285156 38.300781 L 47.431641 50.560547 A 1.0001 1.0001 0 0 0 48.15625 51.755859 L 52.400391 52.851562 A 1.0001 1.0001 0 1 0 52.900391 50.916016 L 49.601562 50.064453 L 52.234375 38.753906 A 1.0001 1.0001 0 0 0 51.277344 37.513672 z M 62.058594 63.5625 C 62.437104 64.925839 62.992869 66.510989 63.798828 68.091797 C 64.198567 68.875846 64.740785 69.516694 65.382812 70.101562 L 63.435547 72.328125 A 1.0001 1.0001 0 1 0 64.941406 73.644531 L 66.962891 71.333984 C 67.342736 71.597261 67.736122 71.859726 68.152344 72.132812 L 61.910156 79.958984 A 1.0006416 1.0006416 0 1 0 63.474609 81.207031 L 69.861328 73.197266 C 70.254934 73.432039 70.656359 73.665202 71.064453 73.896484 L 69.4375 77.326172 A 1.0007728 1.0007728 0 1 0 71.246094 78.183594 L 72.828125 74.845703 C 73.413727 75.158558 73.994216 75.483392 74.578125 75.78125 C 74.963125 75.977642 75.271103 76.124494 75.625 76.300781 L 74.404297 79.123047 A 1.0003207 1.0003207 0 1 0 76.240234 79.917969 L 77.423828 77.183594 C 79.376403 78.11468 80.743012 78.697689 81.548828 79.046875 L 79.138672 87.568359 L 44.570312 87.857422 L 45.087891 86.787109 A 1.0001 1.0001 0 0 0 44.228516 85.339844 A 1.0001 1.0001 0 0 0 43.287109 85.916016 L 42.339844 87.875 L 39.658203 87.898438 L 40.863281 85.193359 A 1.0001 1.0001 0 0 0 39.958984 83.773438 A 1.0001 1.0001 0 0 0 39.037109 84.378906 L 37.462891 87.916016 L 34.384766 87.941406 L 35.179688 85.96875 A 1.0001 1.0001 0 0 0 34.224609 84.582031 A 1.0001 1.0001 0 0 0 33.324219 85.220703 L 32.220703 87.960938 L 29.865234 87.980469 L 31.175781 84.589844 A 1.0001 1.0001 0 0 0 30.201172 83.216797 A 1.0001 1.0001 0 0 0 29.310547 83.869141 L 27.714844 87.998047 L 25.119141 88.019531 L 26.542969 85.402344 A 1.0001 1.0001 0 0 0 25.654297 83.912109 A 1.0001 1.0001 0 0 0 24.787109 84.447266 L 22.833984 88.039062 L 20.65625 88.056641 L 20.259766 86.738281 L 22.404297 84.195312 A 1.0001 1.0001 0 0 0 21.632812 82.539062 A 1.0001 1.0001 0 0 0 20.875 82.90625 L 19.574219 84.449219 L 17.949219 79.039062 C 19.459526 78.191388 27.090686 73.886401 32.466797 71.330078 C 32.777641 71.182273 33.057662 71.01539 33.341797 70.851562 L 37.712891 74.357422 A 1.0001 1.0001 0 1 0 38.964844 72.798828 L 35.056641 69.662109 C 35.500164 69.28993 35.897884 68.897904 36.257812 68.494141 L 38.513672 71.220703 A 1.0001 1.0001 0 1 0 40.054688 69.947266 L 37.492188 66.847656 C 37.992048 66.043253 38.383272 65.231204 38.667969 64.462891 C 41.238468 67.435654 45.033297 69.999889 49.970703 69.896484 C 54.852025 69.793788 58.796469 67.093774 61.582031 64.103516 C 61.74892 63.924363 61.899362 63.742965 62.058594 63.5625 z M 56.888672 76.365234 C 56.337672 76.337234 55.867844 76.763453 55.839844 77.314453 C 55.812844 77.865453 56.236109 78.335281 56.787109 78.363281 C 57.338109 78.390281 57.809891 77.965063 57.837891 77.414062 C 57.865891 76.863063 57.440672 76.392234 56.888672 76.365234 z M 49.519531 77.523438 C 48.968531 77.496438 48.498703 77.921656 48.470703 78.472656 C 48.443703 79.023656 48.868922 79.493484 49.419922 79.521484 C 49.970922 79.548484 50.44075 79.123266 50.46875 78.572266 C 50.49575 78.020266 50.070531 77.550438 49.519531 77.523438 z M 55.554688 82.191406 C 55.003688 82.164406 54.533859 82.589625 54.505859 83.140625 C 54.478859 83.691625 54.904078 84.161453 55.455078 84.189453 C 56.006078 84.216453 56.475906 83.791234 56.503906 83.240234 C 56.531906 82.688234 56.106687 82.218406 55.554688 82.191406 z"/></svg>