<svg xmlns="http://www.w3.org/2000/svg"  viewBox="0 0 100 100" width="50px" height="50px"><path d="M 68.332031 15.167969 C 67.587506 15.170669 66.856998 15.284451 66.164062 15.5 C 63.392324 16.362194 61.182359 18.792789 60.820312 21.923828 A 1.0001 1.0001 0 0 0 60.816406 22.097656 L 61.138672 27.529297 C 59.889614 28.900151 58.965002 30.334958 58.306641 31.548828 C 57.611338 31.009986 56.814984 30.482224 55.806641 30.089844 C 53.168734 29.063344 49.431645 29.416098 45.505859 32.351562 C 44.512348 30.358466 43.326638 28.765499 41.998047 27.566406 L 42.607422 21.388672 A 1.0001 1.0001 0 0 0 42.496094 20.824219 C 41.053334 18.087046 39.030065 16.43498 36.611328 16.144531 C 34.192591 15.854083 31.583939 16.847496 28.773438 18.777344 A 1.0001 1.0001 0 0 0 28.416016 19.220703 L 25.160156 27.103516 C 22.289126 28.543797 20.375 30.080078 20.375 30.080078 A 2.0002 2.0002 0 0 0 19.697266 31.089844 L 10.580078 62.576172 A 2.0002 2.0002 0 0 0 10.498047 62.974609 C 10.360803 63.400155 10.224401 63.827385 10.119141 64.269531 C 7.9296227 73.46657 13.640858 82.749937 22.837891 84.939453 C 32.034924 87.128968 41.318296 81.415789 43.507812 72.21875 C 43.536174 72.099619 43.5485 71.980472 43.574219 71.861328 C 46.756561 73.247599 53.079413 75.06433 59.501953 71.517578 C 60.127473 74.768581 61.69563 77.871499 64.205078 80.380859 C 70.89023 87.065777 81.789686 87.067971 88.474609 80.382812 C 93.058305 75.798958 94.497223 69.232101 92.794922 63.402344 A 2.0008746 2.0008746 0 0 0 92.724609 62.914062 C 92.724609 62.914062 87.805287 44.834232 82.191406 28.421875 A 2.0002 2.0002 0 0 0 81.533203 27.494141 C 80.183371 26.438014 78.877303 25.601289 77.609375 24.933594 L 74.935547 18.625 A 1.0001 1.0001 0 0 0 74.783203 18.375 C 72.927817 16.148372 70.565607 15.159801 68.332031 15.167969 z M 68.330078 17.152344 C 69.945046 17.123042 71.659582 17.816757 73.169922 19.585938 L 74.947266 23.779297 C 73.421636 23.26017 71.96168 22.998859 70.580078 22.998047 C 67.529616 22.996268 64.982785 24.196854 63.037109 25.746094 L 62.820312 22.105469 C 63.107557 19.805052 64.730325 18.041447 66.759766 17.410156 C 67.264819 17.253051 67.791756 17.162111 68.330078 17.152344 z M 35.736328 18.099609 C 35.955989 18.095713 36.168079 18.106246 36.373047 18.130859 C 38.004396 18.326756 39.363077 19.369523 40.580078 21.564453 L 40.125 26.195312 C 39.882147 26.053536 39.638158 25.916527 39.388672 25.796875 C 36.396505 24.361851 33.196981 24.466612 30.404297 25.134766 C 29.495167 25.352276 28.633234 25.642506 27.798828 25.955078 L 30.130859 20.306641 C 32.305907 18.854524 34.1987 18.126885 35.736328 18.099609 z M 71.017578 27.023438 C 72.530428 27.11361 74.342442 27.672106 76.466797 28.933594 L 75.556641 29.810547 A 1.0001 1.0001 0 1 0 76.945312 31.25 L 78.177734 30.0625 C 78.324436 30.167717 78.46596 30.259552 78.615234 30.371094 C 78.740227 30.738823 78.858177 31.111409 78.982422 31.480469 L 76.414062 34.042969 A 1.0001 1.0001 0 1 0 77.826172 35.458984 L 79.6875 33.603516 C 82.164256 41.088822 84.388831 48.423655 86.052734 54.113281 C 83.253517 52.18977 80.009997 51.19279 76.742188 51.117188 L 76.515625 49.322266 A 1.0001 1.0001 0 0 0 75.480469 48.435547 A 1.0001 1.0001 0 0 0 74.53125 49.574219 L 74.732422 51.173828 C 74.045674 51.237843 73.363866 51.355787 72.6875 51.501953 L 72.412109 49.605469 A 1.0001 1.0001 0 0 0 71.361328 48.736328 A 1.0001 1.0001 0 0 0 70.431641 49.892578 L 70.746094 52.048828 C 70.345377 52.186259 69.948178 52.332152 69.556641 52.5 L 69.347656 50.433594 A 1.0001 1.0001 0 0 0 68.333984 49.519531 A 1.0001 1.0001 0 0 0 67.357422 50.634766 L 67.644531 53.474609 C 67.228632 53.718976 66.822026 53.981315 66.423828 54.263672 L 66.009766 51.939453 A 1.0001 1.0001 0 0 0 65.03125 51.101562 A 1.0001 1.0001 0 0 0 64.041016 52.291016 L 64.650391 55.710938 C 64.503611 55.84783 64.348083 55.970271 64.205078 56.113281 C 63.417668 56.900718 62.730815 57.750057 62.128906 58.640625 L 61.646484 48.828125 L 63.859375 46.660156 A 1.0006373 1.0006373 0 1 0 62.458984 45.230469 L 61.513672 46.15625 L 61.414062 44.101562 A 1.0001 1.0001 0 0 0 61.488281 43.978516 L 63.4375 40.298828 A 1.0004047 1.0004047 0 1 0 61.669922 39.361328 L 61.222656 40.207031 L 60.976562 35.236328 C 61.354329 34.323378 62.745923 31.23552 65.240234 29.101562 C 65.513532 28.867748 65.798293 28.654128 66.089844 28.451172 L 66.587891 29.912109 A 1.0008983 1.0008983 0 1 0 68.482422 29.265625 L 67.878906 27.494141 C 68.210141 27.36772 68.552818 27.261005 68.910156 27.181641 L 69.550781 28.683594 A 1.000187 1.000187 0 1 0 71.390625 27.898438 L 71.017578 27.023438 z M 33.804688 28.669922 C 33.874916 28.667241 33.943702 28.671169 34.013672 28.669922 L 33.121094 30.181641 A 1.000376 1.000376 0 0 0 34.84375 31.199219 L 36.207031 28.892578 C 36.705602 29.012233 37.190978 29.179282 37.660156 29.404297 C 37.662217 29.405285 37.663955 29.407212 37.666016 29.408203 L 36.462891 31.427734 A 1.0001908 1.0001908 0 1 0 38.181641 32.451172 L 39.333984 30.517578 C 39.86549 30.975381 40.381579 31.543303 40.875 32.244141 L 39.396484 33.835938 A 1.0001 1.0001 0 1 0 40.861328 35.197266 L 41.929688 34.046875 C 42.248099 34.690553 42.556332 35.38906 42.841797 36.195312 A 2.0002 2.0002 0 0 0 43.378906 37.005859 L 42.816406 47.078125 C 40.696001 44.88149 38.091797 44.28125 38.091797 44.28125 A 1.0001 1.0001 0 0 0 37.894531 44.251953 A 1.0001 1.0001 0 0 0 37.638672 46.228516 C 37.638672 46.228516 41.034577 47.040694 42.640625 50.234375 L 42.498047 52.767578 C 41.331488 50.862195 39.925848 49.643709 38.636719 48.917969 C 36.668488 47.809916 34.91797 47.779297 34.917969 47.779297 A 1.0001 1.0001 0 1 0 34.898438 49.779297 C 34.898438 49.779297 36.09498 49.781197 37.65625 50.660156 C 39.21752 51.539103 41.074453 53.259537 42.173828 56.951172 A 1.0001 1.0001 0 0 0 42.253906 57.15625 L 42.070312 60.441406 C 39.858004 56.12549 35.857667 52.757917 30.787109 51.550781 C 25.928605 50.394129 21.056599 51.458204 17.208984 54.060547 L 19.716797 45.402344 L 22.265625 44.275391 A 1.0001 1.0001 0 0 0 21.914062 42.355469 A 1.0001 1.0001 0 0 0 21.457031 42.445312 L 20.443359 42.892578 L 20.759766 41.802734 L 23.875 40.595703 A 1.0001 1.0001 0 0 0 23.511719 38.658203 A 1.0001 1.0001 0 0 0 23.152344 38.730469 L 21.458984 39.386719 L 21.882812 37.919922 L 26.244141 36.138672 A 1.0001 1.0001 0 0 0 25.847656 34.208984 A 1.0001 1.0001 0 0 0 25.488281 34.287109 L 22.59375 35.470703 L 23.337891 32.898438 C 23.988447 32.413371 27.311214 29.987844 31.333984 29.025391 C 32.165244 28.826511 32.993448 28.700888 33.804688 28.669922 z M 52.017578 33.435547 C 52.918639 33.361862 53.683125 33.554015 54.357422 33.816406 C 56.155546 34.516118 57.263672 36.082031 57.263672 36.082031 A 2.0002 2.0002 0 0 0 59.058594 36.960938 L 60.300781 62.197266 C 59.728244 63.724478 59.377214 65.314281 59.253906 66.921875 C 52.194631 72.251392 45.261077 68.441777 43.945312 67.626953 C 43.922018 66.997258 43.870846 66.372235 43.779297 65.755859 L 45.359375 37.421875 A 2.0002 2.0002 0 0 0 46.150391 36.933594 C 48.633701 34.420539 50.51581 33.558355 52.017578 33.435547 z M 51.992188 53.0625 C 50.874806 52.99002 49.478457 53.269514 48.222656 54.089844 C 46.966856 54.910174 45.900656 56.375888 45.824219 58.382812 C 45.761389 60.029429 46.568847 61.394047 47.710938 62.212891 C 48.853026 63.031734 50.285533 63.399072 51.714844 63.441406 C 53.144154 63.483746 54.582573 63.200699 55.769531 62.539062 C 56.955964 61.877719 57.923842 60.730254 58.011719 59.253906 L 58.011719 59.251953 C 58.170517 56.552893 57.127138 54.802167 55.748047 53.972656 C 54.368564 53.14291 52.839075 53.117922 51.992188 53.0625 z M 51.861328 55.058594 C 52.756439 55.117174 53.91628 55.204043 54.716797 55.685547 C 55.517314 56.167051 56.146098 56.92618 56.015625 59.134766 C 55.973765 59.844473 55.576448 60.358418 54.796875 60.792969 C 54.017302 61.22752 52.886705 61.476275 51.775391 61.443359 C 50.664076 61.410439 49.584191 61.096359 48.875 60.587891 C 48.165809 60.079422 47.783597 59.472369 47.822266 58.458984 C 47.874826 57.078909 48.487957 56.306795 49.316406 55.765625 C 50.144856 55.224455 51.236708 55.018076 51.861328 55.058594 z M 76.339844 55.072266 C 77.65039 55.072109 78.958565 55.27486 80.222656 55.666016 L 78.978516 56.927734 A 1.0001 1.0001 0 1 0 80.402344 58.332031 L 82.230469 56.478516 C 82.541363 56.634863 82.844065 56.809571 83.144531 56.992188 L 82.623047 57.431641 A 1.000172 1.000172 0 1 0 83.910156 58.962891 L 84.822266 58.195312 C 85.102516 58.432704 85.379979 58.67491 85.644531 58.939453 C 85.979362 59.274272 86.292636 59.622806 86.583984 59.982422 L 85.685547 60.507812 A 1.0009237 1.0009237 0 1 0 86.695312 62.236328 L 87.712891 61.640625 C 90.655452 66.681461 89.976599 73.222468 85.646484 77.552734 C 85.535428 77.663794 85.414691 77.758959 85.300781 77.865234 L 84.066406 76.794922 A 1.0001 1.0001 0 0 0 83.429688 76.541016 A 1.0001 1.0001 0 0 0 82.755859 78.304688 L 83.71875 79.140625 C 83.12659 79.543964 82.508705 79.885666 81.873047 80.181641 L 81.396484 78.900391 A 1.0001 1.0001 0 0 0 80.482422 78.236328 A 1.0001 1.0001 0 0 0 79.521484 79.597656 L 80.003906 80.896484 C 78.850871 81.231316 77.66312 81.402144 76.472656 81.414062 L 76.759766 78.488281 A 1.0001 1.0001 0 0 0 75.748047 77.376953 A 1.0001 1.0001 0 0 0 74.769531 78.292969 L 74.476562 81.271484 C 73.629781 81.15021 72.793713 80.947425 71.978516 80.660156 L 72.291016 79.279297 A 1.0001 1.0001 0 0 0 71.326172 78.044922 A 1.0001 1.0001 0 0 0 70.339844 78.837891 L 70.113281 79.84375 C 69.564112 79.547315 69.035408 79.198651 68.523438 78.818359 L 70.507812 75.609375 A 1.0001 1.0001 0 0 0 69.703125 74.072266 A 1.0001 1.0001 0 0 0 68.806641 74.558594 L 66.986328 77.501953 C 66.052556 76.558555 65.288496 75.511188 64.697266 74.398438 L 67.671875 72.517578 A 1.0001 1.0001 0 0 0 67.140625 70.666016 A 1.0001 1.0001 0 0 0 66.603516 70.828125 L 63.900391 72.537109 C 62.306428 67.930726 63.341825 62.632913 67.033203 58.941406 C 69.611381 56.363138 72.975792 55.072668 76.339844 55.072266 z M 27.212891 55.083984 C 28.088358 55.112831 28.974572 55.230298 29.861328 55.441406 C 30.594425 55.615933 31.29006 55.861029 31.960938 56.144531 L 30.761719 57.328125 A 1.0006125 1.0006125 0 0 0 32.166016 58.753906 L 33.828125 57.113281 C 34.172392 57.329359 34.506359 57.557929 34.826172 57.802734 L 33.841797 58.701172 A 1.0001 1.0001 0 1 0 35.189453 60.177734 L 36.322266 59.142578 C 36.807475 59.649112 37.245815 60.194876 37.642578 60.769531 L 36.390625 61.419922 A 1.0001 1.0001 0 1 0 37.3125 63.193359 L 38.662109 62.492188 C 39.940968 65.127003 40.351611 68.206078 39.617188 71.291016 C 38.814117 74.664304 36.785451 77.405276 34.125 79.183594 L 32.546875 77.939453 A 1.0001 1.0001 0 0 0 31.898438 77.716797 A 1.0001 1.0001 0 0 0 31.308594 79.509766 L 32.230469 80.238281 C 30.914073 80.832694 29.496399 81.214191 28.025391 81.347656 L 28.064453 79.273438 A 1.0001 1.0001 0 0 0 27.068359 78.240234 A 1.0001 1.0001 0 0 0 26.064453 79.234375 L 26.025391 81.373047 C 25.275726 81.326339 24.520393 81.228979 23.763672 81.048828 C 23.063001 80.882021 22.397845 80.647479 21.753906 80.380859 L 22.441406 79.089844 A 1.0001 1.0001 0 0 0 21.539062 77.607422 A 1.0001 1.0001 0 0 0 20.675781 78.148438 L 19.962891 79.486328 C 19.462682 79.182839 18.99251 78.841087 18.542969 78.478516 L 20.099609 76.566406 A 1.0001 1.0001 0 0 0 19.298828 74.923828 A 1.0001 1.0001 0 0 0 18.546875 75.304688 L 17.076172 77.113281 C 16.375499 76.344338 15.780498 75.490688 15.28125 74.582031 L 18.070312 72.660156 A 1.0001 1.0001 0 0 0 17.466797 70.828125 A 1.0001 1.0001 0 0 0 16.933594 71.011719 L 14.435547 72.732422 C 14.178408 72.022509 13.979637 71.289275 13.847656 70.537109 L 15.390625 69.623047 A 1.0001 1.0001 0 0 0 14.914062 67.755859 A 1.0001 1.0001 0 0 0 14.371094 67.902344 L 13.662109 68.322266 C 13.658362 67.291316 13.759944 66.244685 14.009766 65.195312 C 15.487522 58.988015 21.084621 54.882059 27.212891 55.083984 z M 72.064453 61.521484 C 71.677734 61.473578 71.281219 61.655172 71.074219 62.013672 C 70.798219 62.491672 70.963406 63.101906 71.441406 63.378906 C 71.919406 63.654906 72.530641 63.491672 72.806641 63.013672 C 73.082641 62.535672 72.919406 61.922484 72.441406 61.646484 C 72.321906 61.577484 72.193359 61.537453 72.064453 61.521484 z M 77.404297 61.857422 C 77.017578 61.809516 76.621062 61.991109 76.414062 62.349609 C 76.138063 62.827609 76.30325 63.441797 76.78125 63.716797 C 77.25925 63.992797 77.870484 63.827609 78.146484 63.349609 C 78.422484 62.871609 78.25925 62.260375 77.78125 61.984375 C 77.66175 61.915375 77.533203 61.873391 77.404297 61.857422 z M 74.904297 66.734375 C 74.517578 66.686469 74.121062 66.868063 73.914062 67.226562 C 73.638062 67.705563 73.801297 68.31875 74.279297 68.59375 C 74.757297 68.86975 75.370484 68.704562 75.646484 68.226562 C 75.922484 67.748563 75.757297 67.137328 75.279297 66.861328 C 75.159797 66.792328 75.033203 66.750344 74.904297 66.734375 z"/></svg>